<mxfile host="app.diagrams.net" modified="2024-04-11T19:29:25.137Z" agent="Mozilla/5.0 (Windows NT 10.0; Win64; x64) AppleWebKit/537.36 (KHTML, like Gecko) Chrome/123.0.0.0 Safari/537.36 Edg/123.0.0.0" etag="D6ZFhos_qkCcqglLAcff" version="23.1.5" type="github">
  <diagram id="R2lEEEUBdFMjLlhIrx00" name="Page-1">
    <mxGraphModel dx="1822" dy="1035" grid="1" gridSize="10" guides="1" tooltips="1" connect="1" arrows="1" fold="1" page="1" pageScale="1" pageWidth="1169" pageHeight="1654" math="0" shadow="0" extFonts="Permanent Marker^https://fonts.googleapis.com/css?family=Permanent+Marker">
      <root>
        <mxCell id="0" />
        <mxCell id="1" parent="0" />
        <mxCell id="V3LLHuT2ZsmXBPZ5tFTZ-148" value="" style="endArrow=none;html=1;rounded=0;entryX=1;entryY=0.5;entryDx=0;entryDy=0;exitX=0;exitY=0.5;exitDx=0;exitDy=0;" edge="1" parent="1" source="V3LLHuT2ZsmXBPZ5tFTZ-146" target="V3LLHuT2ZsmXBPZ5tFTZ-1">
          <mxGeometry width="50" height="50" relative="1" as="geometry">
            <mxPoint x="450" y="1170" as="sourcePoint" />
            <mxPoint x="500" y="1120" as="targetPoint" />
          </mxGeometry>
        </mxCell>
        <mxCell id="V3LLHuT2ZsmXBPZ5tFTZ-126" style="rounded=0;orthogonalLoop=1;jettySize=auto;html=1;exitX=1;exitY=0.25;exitDx=0;exitDy=0;entryX=0.142;entryY=0.959;entryDx=0;entryDy=0;entryPerimeter=0;fillColor=#dae8fc;strokeColor=#6c8ebf;" edge="1" parent="1" source="V3LLHuT2ZsmXBPZ5tFTZ-7" target="V3LLHuT2ZsmXBPZ5tFTZ-125">
          <mxGeometry relative="1" as="geometry" />
        </mxCell>
        <mxCell id="V3LLHuT2ZsmXBPZ5tFTZ-95" style="rounded=0;orthogonalLoop=1;jettySize=auto;html=1;exitX=0.5;exitY=0;exitDx=0;exitDy=0;entryX=0.794;entryY=0.965;entryDx=0;entryDy=0;entryPerimeter=0;fillColor=#dae8fc;strokeColor=#6c8ebf;" edge="1" parent="1" source="V3LLHuT2ZsmXBPZ5tFTZ-6" target="V3LLHuT2ZsmXBPZ5tFTZ-90">
          <mxGeometry relative="1" as="geometry" />
        </mxCell>
        <mxCell id="V3LLHuT2ZsmXBPZ5tFTZ-99" style="rounded=0;orthogonalLoop=1;jettySize=auto;html=1;exitX=0;exitY=0.25;exitDx=0;exitDy=0;entryX=0.986;entryY=0.723;entryDx=0;entryDy=0;entryPerimeter=0;fillColor=#dae8fc;strokeColor=#6c8ebf;" edge="1" parent="1" source="V3LLHuT2ZsmXBPZ5tFTZ-6" target="V3LLHuT2ZsmXBPZ5tFTZ-88">
          <mxGeometry relative="1" as="geometry" />
        </mxCell>
        <mxCell id="V3LLHuT2ZsmXBPZ5tFTZ-101" style="rounded=0;orthogonalLoop=1;jettySize=auto;html=1;exitX=0;exitY=0.75;exitDx=0;exitDy=0;entryX=0.842;entryY=0.073;entryDx=0;entryDy=0;entryPerimeter=0;fillColor=#dae8fc;strokeColor=#6c8ebf;" edge="1" parent="1" source="V3LLHuT2ZsmXBPZ5tFTZ-6" target="V3LLHuT2ZsmXBPZ5tFTZ-94">
          <mxGeometry relative="1" as="geometry" />
        </mxCell>
        <mxCell id="V3LLHuT2ZsmXBPZ5tFTZ-82" style="rounded=0;orthogonalLoop=1;jettySize=auto;html=1;exitX=1;exitY=1;exitDx=0;exitDy=0;entryX=0;entryY=0;entryDx=0;entryDy=0;fillColor=#dae8fc;strokeColor=#6c8ebf;" edge="1" parent="1" source="V3LLHuT2ZsmXBPZ5tFTZ-9" target="V3LLHuT2ZsmXBPZ5tFTZ-81">
          <mxGeometry relative="1" as="geometry" />
        </mxCell>
        <mxCell id="V3LLHuT2ZsmXBPZ5tFTZ-83" style="rounded=0;orthogonalLoop=1;jettySize=auto;html=1;exitX=0.25;exitY=1;exitDx=0;exitDy=0;entryX=0.239;entryY=-0.023;entryDx=0;entryDy=0;entryPerimeter=0;fillColor=#dae8fc;strokeColor=#6c8ebf;" edge="1" parent="1" source="V3LLHuT2ZsmXBPZ5tFTZ-9" target="V3LLHuT2ZsmXBPZ5tFTZ-80">
          <mxGeometry relative="1" as="geometry" />
        </mxCell>
        <mxCell id="V3LLHuT2ZsmXBPZ5tFTZ-76" style="rounded=0;orthogonalLoop=1;jettySize=auto;html=1;exitX=1;exitY=0.75;exitDx=0;exitDy=0;entryX=0;entryY=0;entryDx=0;entryDy=0;fillColor=#dae8fc;strokeColor=#6c8ebf;" edge="1" parent="1" source="V3LLHuT2ZsmXBPZ5tFTZ-9" target="V3LLHuT2ZsmXBPZ5tFTZ-71">
          <mxGeometry relative="1" as="geometry" />
        </mxCell>
        <mxCell id="V3LLHuT2ZsmXBPZ5tFTZ-34" style="rounded=0;orthogonalLoop=1;jettySize=auto;html=1;exitX=0.5;exitY=0;exitDx=0;exitDy=0;entryX=0.221;entryY=0.992;entryDx=0;entryDy=0;entryPerimeter=0;fillColor=#dae8fc;strokeColor=#6c8ebf;" edge="1" parent="1" source="V3LLHuT2ZsmXBPZ5tFTZ-1" target="V3LLHuT2ZsmXBPZ5tFTZ-12">
          <mxGeometry relative="1" as="geometry" />
        </mxCell>
        <mxCell id="V3LLHuT2ZsmXBPZ5tFTZ-35" style="rounded=0;orthogonalLoop=1;jettySize=auto;html=1;exitX=1;exitY=0;exitDx=0;exitDy=0;entryX=0.076;entryY=0.806;entryDx=0;entryDy=0;entryPerimeter=0;shadow=1;strokeColor=#6c8ebf;elbow=vertical;jumpStyle=none;fillColor=#dae8fc;" edge="1" parent="1" source="V3LLHuT2ZsmXBPZ5tFTZ-1" target="V3LLHuT2ZsmXBPZ5tFTZ-31">
          <mxGeometry relative="1" as="geometry" />
        </mxCell>
        <mxCell id="V3LLHuT2ZsmXBPZ5tFTZ-32" style="rounded=0;orthogonalLoop=1;jettySize=auto;html=1;exitX=0.25;exitY=0;exitDx=0;exitDy=0;entryX=0.607;entryY=0.992;entryDx=0;entryDy=0;entryPerimeter=0;targetPerimeterSpacing=0;fillColor=#dae8fc;strokeColor=#6c8ebf;" edge="1" parent="1" source="V3LLHuT2ZsmXBPZ5tFTZ-1" target="V3LLHuT2ZsmXBPZ5tFTZ-30">
          <mxGeometry relative="1" as="geometry" />
        </mxCell>
        <mxCell id="V3LLHuT2ZsmXBPZ5tFTZ-20" style="rounded=0;orthogonalLoop=1;jettySize=auto;html=1;exitX=0.75;exitY=0;exitDx=0;exitDy=0;entryX=0;entryY=1;entryDx=0;entryDy=0;fillColor=#dae8fc;strokeColor=#6c8ebf;" edge="1" parent="1" source="V3LLHuT2ZsmXBPZ5tFTZ-1" target="V3LLHuT2ZsmXBPZ5tFTZ-11">
          <mxGeometry relative="1" as="geometry" />
        </mxCell>
        <mxCell id="V3LLHuT2ZsmXBPZ5tFTZ-22" style="rounded=0;orthogonalLoop=1;jettySize=auto;html=1;exitX=1;exitY=0.25;exitDx=0;exitDy=0;entryX=0;entryY=0.5;entryDx=0;entryDy=0;fillColor=#dae8fc;strokeColor=#6c8ebf;" edge="1" parent="1" source="V3LLHuT2ZsmXBPZ5tFTZ-1" target="V3LLHuT2ZsmXBPZ5tFTZ-13">
          <mxGeometry relative="1" as="geometry" />
        </mxCell>
        <mxCell id="V3LLHuT2ZsmXBPZ5tFTZ-23" style="rounded=0;orthogonalLoop=1;jettySize=auto;html=1;exitX=1;exitY=0.5;exitDx=0;exitDy=0;fillColor=#dae8fc;strokeColor=#6c8ebf;" edge="1" parent="1" source="V3LLHuT2ZsmXBPZ5tFTZ-1" target="V3LLHuT2ZsmXBPZ5tFTZ-14">
          <mxGeometry relative="1" as="geometry" />
        </mxCell>
        <mxCell id="V3LLHuT2ZsmXBPZ5tFTZ-24" style="rounded=0;orthogonalLoop=1;jettySize=auto;html=1;exitX=0.25;exitY=0;exitDx=0;exitDy=0;entryX=1;entryY=1;entryDx=0;entryDy=0;fillColor=#dae8fc;strokeColor=#6c8ebf;" edge="1" parent="1" source="V3LLHuT2ZsmXBPZ5tFTZ-1" target="V3LLHuT2ZsmXBPZ5tFTZ-15">
          <mxGeometry relative="1" as="geometry" />
        </mxCell>
        <mxCell id="V3LLHuT2ZsmXBPZ5tFTZ-33" style="rounded=0;orthogonalLoop=1;jettySize=auto;html=1;exitX=0.5;exitY=0;exitDx=0;exitDy=0;entryX=0.5;entryY=1;entryDx=0;entryDy=0;fillColor=#dae8fc;strokeColor=#6c8ebf;" edge="1" parent="1" source="V3LLHuT2ZsmXBPZ5tFTZ-1" target="V3LLHuT2ZsmXBPZ5tFTZ-29">
          <mxGeometry relative="1" as="geometry" />
        </mxCell>
        <mxCell id="V3LLHuT2ZsmXBPZ5tFTZ-1" value="ORDER13" style="whiteSpace=wrap;html=1;aspect=fixed;fillColor=#f8cecc;strokeColor=#b85450;" vertex="1" parent="1">
          <mxGeometry x="710" y="930" width="80" height="80" as="geometry" />
        </mxCell>
        <mxCell id="V3LLHuT2ZsmXBPZ5tFTZ-44" style="rounded=0;orthogonalLoop=1;jettySize=auto;html=1;exitX=0.5;exitY=0;exitDx=0;exitDy=0;entryX=1;entryY=1;entryDx=0;entryDy=0;fillColor=#dae8fc;strokeColor=#6c8ebf;" edge="1" parent="1" source="V3LLHuT2ZsmXBPZ5tFTZ-2" target="V3LLHuT2ZsmXBPZ5tFTZ-40">
          <mxGeometry relative="1" as="geometry" />
        </mxCell>
        <mxCell id="V3LLHuT2ZsmXBPZ5tFTZ-45" style="rounded=0;orthogonalLoop=1;jettySize=auto;html=1;exitX=0.25;exitY=0;exitDx=0;exitDy=0;entryX=1;entryY=1;entryDx=0;entryDy=0;fillColor=#dae8fc;strokeColor=#6c8ebf;" edge="1" parent="1" source="V3LLHuT2ZsmXBPZ5tFTZ-2" target="V3LLHuT2ZsmXBPZ5tFTZ-42">
          <mxGeometry relative="1" as="geometry" />
        </mxCell>
        <mxCell id="V3LLHuT2ZsmXBPZ5tFTZ-47" style="rounded=0;orthogonalLoop=1;jettySize=auto;html=1;exitX=0;exitY=0.5;exitDx=0;exitDy=0;entryX=1;entryY=0.5;entryDx=0;entryDy=0;fillColor=#dae8fc;strokeColor=#6c8ebf;" edge="1" parent="1" source="V3LLHuT2ZsmXBPZ5tFTZ-2" target="V3LLHuT2ZsmXBPZ5tFTZ-41">
          <mxGeometry relative="1" as="geometry" />
        </mxCell>
        <mxCell id="V3LLHuT2ZsmXBPZ5tFTZ-131" style="rounded=0;orthogonalLoop=1;jettySize=auto;html=1;exitX=0.5;exitY=1;exitDx=0;exitDy=0;entryX=0.5;entryY=0;entryDx=0;entryDy=0;strokeColor=none;endArrow=none;endFill=0;" edge="1" parent="1" target="V3LLHuT2ZsmXBPZ5tFTZ-127">
          <mxGeometry relative="1" as="geometry">
            <mxPoint x="370" y="915" as="sourcePoint" />
          </mxGeometry>
        </mxCell>
        <mxCell id="V3LLHuT2ZsmXBPZ5tFTZ-2" value="CUSTOMER" style="whiteSpace=wrap;html=1;aspect=fixed;fillColor=#f8cecc;strokeColor=#b85450;" vertex="1" parent="1">
          <mxGeometry x="350" y="785" width="80" height="80" as="geometry" />
        </mxCell>
        <mxCell id="V3LLHuT2ZsmXBPZ5tFTZ-50" style="rounded=0;orthogonalLoop=1;jettySize=auto;html=1;exitX=0;exitY=0.5;exitDx=0;exitDy=0;fillColor=#dae8fc;strokeColor=#6c8ebf;" edge="1" parent="1" source="V3LLHuT2ZsmXBPZ5tFTZ-3" target="V3LLHuT2ZsmXBPZ5tFTZ-49">
          <mxGeometry relative="1" as="geometry" />
        </mxCell>
        <mxCell id="V3LLHuT2ZsmXBPZ5tFTZ-51" style="rounded=0;orthogonalLoop=1;jettySize=auto;html=1;exitX=0;exitY=1;exitDx=0;exitDy=0;fillColor=#dae8fc;strokeColor=#6c8ebf;" edge="1" parent="1" source="V3LLHuT2ZsmXBPZ5tFTZ-3" target="V3LLHuT2ZsmXBPZ5tFTZ-48">
          <mxGeometry relative="1" as="geometry" />
        </mxCell>
        <mxCell id="V3LLHuT2ZsmXBPZ5tFTZ-3" value="PAYMENT122" style="whiteSpace=wrap;html=1;aspect=fixed;fillColor=#f8cecc;strokeColor=#b85450;" vertex="1" parent="1">
          <mxGeometry x="540" y="1190" width="80" height="80" as="geometry" />
        </mxCell>
        <mxCell id="V3LLHuT2ZsmXBPZ5tFTZ-4" value="MENU" style="whiteSpace=wrap;html=1;aspect=fixed;fillColor=#f8cecc;strokeColor=#b85450;" vertex="1" parent="1">
          <mxGeometry x="1270" y="1130" width="80" height="80" as="geometry" />
        </mxCell>
        <mxCell id="V3LLHuT2ZsmXBPZ5tFTZ-111" style="rounded=0;orthogonalLoop=1;jettySize=auto;html=1;exitX=1;exitY=0.25;exitDx=0;exitDy=0;entryX=0;entryY=0.5;entryDx=0;entryDy=0;fillColor=#dae8fc;strokeColor=#6c8ebf;" edge="1" parent="1" source="V3LLHuT2ZsmXBPZ5tFTZ-5" target="V3LLHuT2ZsmXBPZ5tFTZ-109">
          <mxGeometry relative="1" as="geometry" />
        </mxCell>
        <mxCell id="V3LLHuT2ZsmXBPZ5tFTZ-112" style="rounded=0;orthogonalLoop=1;jettySize=auto;html=1;exitX=1;exitY=0;exitDx=0;exitDy=0;entryX=0;entryY=1;entryDx=0;entryDy=0;fillColor=#dae8fc;strokeColor=#6c8ebf;" edge="1" parent="1" source="V3LLHuT2ZsmXBPZ5tFTZ-5" target="V3LLHuT2ZsmXBPZ5tFTZ-105">
          <mxGeometry relative="1" as="geometry" />
        </mxCell>
        <mxCell id="V3LLHuT2ZsmXBPZ5tFTZ-115" style="rounded=0;orthogonalLoop=1;jettySize=auto;html=1;exitX=1;exitY=1;exitDx=0;exitDy=0;entryX=0;entryY=0;entryDx=0;entryDy=0;fillColor=#dae8fc;strokeColor=#6c8ebf;" edge="1" parent="1" source="V3LLHuT2ZsmXBPZ5tFTZ-5" target="V3LLHuT2ZsmXBPZ5tFTZ-104">
          <mxGeometry relative="1" as="geometry" />
        </mxCell>
        <mxCell id="V3LLHuT2ZsmXBPZ5tFTZ-5" value="EMPLOYEE" style="whiteSpace=wrap;html=1;aspect=fixed;fillColor=#f8cecc;strokeColor=#b85450;" vertex="1" parent="1">
          <mxGeometry x="1030" y="360" width="80" height="80" as="geometry" />
        </mxCell>
        <mxCell id="V3LLHuT2ZsmXBPZ5tFTZ-97" style="rounded=0;orthogonalLoop=1;jettySize=auto;html=1;exitX=0.25;exitY=0;exitDx=0;exitDy=0;entryX=1;entryY=1;entryDx=0;entryDy=0;fillColor=#dae8fc;strokeColor=#6c8ebf;" edge="1" parent="1" source="V3LLHuT2ZsmXBPZ5tFTZ-6" target="V3LLHuT2ZsmXBPZ5tFTZ-89">
          <mxGeometry relative="1" as="geometry" />
        </mxCell>
        <mxCell id="V3LLHuT2ZsmXBPZ5tFTZ-98" style="rounded=0;orthogonalLoop=1;jettySize=auto;html=1;exitX=0;exitY=0;exitDx=0;exitDy=0;entryX=1;entryY=0.5;entryDx=0;entryDy=0;fillColor=#dae8fc;strokeColor=#6c8ebf;" edge="1" parent="1" source="V3LLHuT2ZsmXBPZ5tFTZ-6" target="V3LLHuT2ZsmXBPZ5tFTZ-91">
          <mxGeometry relative="1" as="geometry" />
        </mxCell>
        <mxCell id="V3LLHuT2ZsmXBPZ5tFTZ-100" style="rounded=0;orthogonalLoop=1;jettySize=auto;html=1;exitX=0;exitY=0.5;exitDx=0;exitDy=0;entryX=1;entryY=0.5;entryDx=0;entryDy=0;fillColor=#dae8fc;strokeColor=#6c8ebf;" edge="1" parent="1" source="V3LLHuT2ZsmXBPZ5tFTZ-6" target="V3LLHuT2ZsmXBPZ5tFTZ-87">
          <mxGeometry relative="1" as="geometry" />
        </mxCell>
        <mxCell id="V3LLHuT2ZsmXBPZ5tFTZ-6" value="MANAGER" style="whiteSpace=wrap;html=1;aspect=fixed;fillColor=#f8cecc;strokeColor=#b85450;" vertex="1" parent="1">
          <mxGeometry x="680" y="360" width="80" height="80" as="geometry" />
        </mxCell>
        <mxCell id="V3LLHuT2ZsmXBPZ5tFTZ-124" style="rounded=0;orthogonalLoop=1;jettySize=auto;html=1;exitX=0.25;exitY=0;exitDx=0;exitDy=0;entryX=0.5;entryY=1;entryDx=0;entryDy=0;fillColor=#dae8fc;strokeColor=#6c8ebf;" edge="1" parent="1" source="V3LLHuT2ZsmXBPZ5tFTZ-7" target="V3LLHuT2ZsmXBPZ5tFTZ-120">
          <mxGeometry relative="1" as="geometry" />
        </mxCell>
        <mxCell id="V3LLHuT2ZsmXBPZ5tFTZ-7" value="INVENTORY  " style="whiteSpace=wrap;html=1;aspect=fixed;fillColor=#f8cecc;strokeColor=#b85450;" vertex="1" parent="1">
          <mxGeometry x="1300" y="820" width="80" height="80" as="geometry" />
        </mxCell>
        <mxCell id="V3LLHuT2ZsmXBPZ5tFTZ-65" style="rounded=0;orthogonalLoop=1;jettySize=auto;html=1;exitX=0;exitY=0.5;exitDx=0;exitDy=0;entryX=1;entryY=0.5;entryDx=0;entryDy=0;fillColor=#dae8fc;strokeColor=#6c8ebf;" edge="1" parent="1" source="V3LLHuT2ZsmXBPZ5tFTZ-8" target="V3LLHuT2ZsmXBPZ5tFTZ-64">
          <mxGeometry relative="1" as="geometry" />
        </mxCell>
        <mxCell id="V3LLHuT2ZsmXBPZ5tFTZ-67" style="rounded=0;orthogonalLoop=1;jettySize=auto;html=1;exitX=0.75;exitY=1;exitDx=0;exitDy=0;fillColor=#dae8fc;strokeColor=#6c8ebf;" edge="1" parent="1" source="V3LLHuT2ZsmXBPZ5tFTZ-8" target="V3LLHuT2ZsmXBPZ5tFTZ-62">
          <mxGeometry relative="1" as="geometry" />
        </mxCell>
        <mxCell id="V3LLHuT2ZsmXBPZ5tFTZ-8" value="TABLES" style="whiteSpace=wrap;html=1;aspect=fixed;fillColor=#f8cecc;strokeColor=#b85450;" vertex="1" parent="1">
          <mxGeometry x="200" y="1125" width="80" height="80" as="geometry" />
        </mxCell>
        <mxCell id="V3LLHuT2ZsmXBPZ5tFTZ-75" style="rounded=0;orthogonalLoop=1;jettySize=auto;html=1;exitX=1;exitY=0.25;exitDx=0;exitDy=0;entryX=0;entryY=0.5;entryDx=0;entryDy=0;fillColor=#dae8fc;strokeColor=#6c8ebf;" edge="1" parent="1" source="V3LLHuT2ZsmXBPZ5tFTZ-9" target="V3LLHuT2ZsmXBPZ5tFTZ-72">
          <mxGeometry relative="1" as="geometry" />
        </mxCell>
        <mxCell id="V3LLHuT2ZsmXBPZ5tFTZ-78" style="rounded=0;orthogonalLoop=1;jettySize=auto;html=1;exitX=0.75;exitY=1;exitDx=0;exitDy=0;entryX=0.5;entryY=0;entryDx=0;entryDy=0;fillColor=#dae8fc;strokeColor=#6c8ebf;" edge="1" parent="1" source="V3LLHuT2ZsmXBPZ5tFTZ-9" target="V3LLHuT2ZsmXBPZ5tFTZ-68">
          <mxGeometry relative="1" as="geometry" />
        </mxCell>
        <mxCell id="V3LLHuT2ZsmXBPZ5tFTZ-79" style="rounded=0;orthogonalLoop=1;jettySize=auto;html=1;exitX=0.5;exitY=1;exitDx=0;exitDy=0;entryX=0.5;entryY=0;entryDx=0;entryDy=0;fillColor=#dae8fc;strokeColor=#6c8ebf;" edge="1" parent="1" source="V3LLHuT2ZsmXBPZ5tFTZ-9" target="V3LLHuT2ZsmXBPZ5tFTZ-69">
          <mxGeometry relative="1" as="geometry" />
        </mxCell>
        <mxCell id="V3LLHuT2ZsmXBPZ5tFTZ-85" style="rounded=0;orthogonalLoop=1;jettySize=auto;html=1;exitX=0;exitY=1;exitDx=0;exitDy=0;entryX=1;entryY=0;entryDx=0;entryDy=0;fillColor=#dae8fc;strokeColor=#6c8ebf;" edge="1" parent="1" source="V3LLHuT2ZsmXBPZ5tFTZ-9" target="V3LLHuT2ZsmXBPZ5tFTZ-84">
          <mxGeometry relative="1" as="geometry" />
        </mxCell>
        <mxCell id="V3LLHuT2ZsmXBPZ5tFTZ-9" value="DELIVERY_BOY" style="whiteSpace=wrap;html=1;aspect=fixed;fillColor=#f8cecc;strokeColor=#b85450;" vertex="1" parent="1">
          <mxGeometry x="705" y="1270" width="90" height="90" as="geometry" />
        </mxCell>
        <mxCell id="V3LLHuT2ZsmXBPZ5tFTZ-10" value="&lt;u&gt;TOTAL_AMOUNT&lt;/u&gt;" style="ellipse;whiteSpace=wrap;html=1;fillColor=#dae8fc;strokeColor=#6c8ebf;" vertex="1" parent="1">
          <mxGeometry x="550" y="850" width="120" height="80" as="geometry" />
        </mxCell>
        <mxCell id="V3LLHuT2ZsmXBPZ5tFTZ-11" value="&lt;i&gt;Name&lt;/i&gt;" style="ellipse;whiteSpace=wrap;html=1;fillColor=#dae8fc;strokeColor=#6c8ebf;" vertex="1" parent="1">
          <mxGeometry x="840" y="730" width="120" height="80" as="geometry" />
        </mxCell>
        <mxCell id="V3LLHuT2ZsmXBPZ5tFTZ-12" value="&lt;u&gt;Name_3&lt;/u&gt;" style="ellipse;whiteSpace=wrap;html=1;fillColor=#dae8fc;strokeColor=#6c8ebf;" vertex="1" parent="1">
          <mxGeometry x="870" y="620" width="120" height="80" as="geometry" />
        </mxCell>
        <mxCell id="V3LLHuT2ZsmXBPZ5tFTZ-13" value="Amount" style="ellipse;whiteSpace=wrap;html=1;fillColor=#dae8fc;strokeColor=#6c8ebf;" vertex="1" parent="1">
          <mxGeometry x="1000" y="900" width="120" height="80" as="geometry" />
        </mxCell>
        <mxCell id="V3LLHuT2ZsmXBPZ5tFTZ-14" value="Name_2" style="ellipse;whiteSpace=wrap;html=1;fillColor=#dae8fc;strokeColor=#6c8ebf;" vertex="1" parent="1">
          <mxGeometry x="870" y="970" width="120" height="80" as="geometry" />
        </mxCell>
        <mxCell id="V3LLHuT2ZsmXBPZ5tFTZ-15" value="&lt;u&gt;Order_No&lt;/u&gt;" style="ellipse;whiteSpace=wrap;html=1;fillColor=#dae8fc;strokeColor=#6c8ebf;" vertex="1" parent="1">
          <mxGeometry x="550" y="730" width="120" height="80" as="geometry" />
        </mxCell>
        <mxCell id="V3LLHuT2ZsmXBPZ5tFTZ-16" value="&lt;i&gt;Customer_No&lt;/i&gt;" style="ellipse;whiteSpace=wrap;html=1;fillColor=#dae8fc;strokeColor=#6c8ebf;" vertex="1" parent="1">
          <mxGeometry x="690" y="780" width="120" height="80" as="geometry" />
        </mxCell>
        <mxCell id="V3LLHuT2ZsmXBPZ5tFTZ-17" value="Quantity" style="ellipse;whiteSpace=wrap;html=1;fillColor=#dae8fc;strokeColor=#6c8ebf;" vertex="1" parent="1">
          <mxGeometry x="840" y="850" width="120" height="80" as="geometry" />
        </mxCell>
        <mxCell id="V3LLHuT2ZsmXBPZ5tFTZ-18" style="rounded=0;orthogonalLoop=1;jettySize=auto;html=1;exitX=0;exitY=0;exitDx=0;exitDy=0;entryX=0.944;entryY=0.74;entryDx=0;entryDy=0;entryPerimeter=0;fillColor=#dae8fc;strokeColor=#6c8ebf;" edge="1" parent="1" source="V3LLHuT2ZsmXBPZ5tFTZ-1" target="V3LLHuT2ZsmXBPZ5tFTZ-10">
          <mxGeometry relative="1" as="geometry" />
        </mxCell>
        <mxCell id="V3LLHuT2ZsmXBPZ5tFTZ-19" style="rounded=0;orthogonalLoop=1;jettySize=auto;html=1;exitX=0.37;exitY=0.002;exitDx=0;exitDy=0;entryX=0.419;entryY=1.031;entryDx=0;entryDy=0;entryPerimeter=0;exitPerimeter=0;fillColor=#dae8fc;strokeColor=#6c8ebf;" edge="1" parent="1" source="V3LLHuT2ZsmXBPZ5tFTZ-1" target="V3LLHuT2ZsmXBPZ5tFTZ-16">
          <mxGeometry relative="1" as="geometry" />
        </mxCell>
        <mxCell id="V3LLHuT2ZsmXBPZ5tFTZ-21" style="rounded=0;orthogonalLoop=1;jettySize=auto;html=1;exitX=1;exitY=0;exitDx=0;exitDy=0;entryX=0.03;entryY=0.687;entryDx=0;entryDy=0;entryPerimeter=0;fillColor=#dae8fc;strokeColor=#6c8ebf;" edge="1" parent="1" source="V3LLHuT2ZsmXBPZ5tFTZ-1" target="V3LLHuT2ZsmXBPZ5tFTZ-17">
          <mxGeometry relative="1" as="geometry" />
        </mxCell>
        <mxCell id="V3LLHuT2ZsmXBPZ5tFTZ-25" value="Amount_2" style="ellipse;whiteSpace=wrap;html=1;fillColor=#dae8fc;strokeColor=#6c8ebf;" vertex="1" parent="1">
          <mxGeometry x="800" y="1080" width="120" height="80" as="geometry" />
        </mxCell>
        <mxCell id="V3LLHuT2ZsmXBPZ5tFTZ-26" style="rounded=0;orthogonalLoop=1;jettySize=auto;html=1;exitX=1;exitY=1;exitDx=0;exitDy=0;entryX=0.379;entryY=0.027;entryDx=0;entryDy=0;entryPerimeter=0;fillColor=#dae8fc;strokeColor=#6c8ebf;" edge="1" parent="1" source="V3LLHuT2ZsmXBPZ5tFTZ-1" target="V3LLHuT2ZsmXBPZ5tFTZ-25">
          <mxGeometry relative="1" as="geometry" />
        </mxCell>
        <mxCell id="V3LLHuT2ZsmXBPZ5tFTZ-27" value="Quantity_2" style="ellipse;whiteSpace=wrap;html=1;fillColor=#dae8fc;strokeColor=#6c8ebf;" vertex="1" parent="1">
          <mxGeometry x="950" y="1070" width="120" height="80" as="geometry" />
        </mxCell>
        <mxCell id="V3LLHuT2ZsmXBPZ5tFTZ-28" style="rounded=0;orthogonalLoop=1;jettySize=auto;html=1;exitX=1;exitY=0.75;exitDx=0;exitDy=0;entryX=0.016;entryY=0.344;entryDx=0;entryDy=0;entryPerimeter=0;fillColor=#dae8fc;strokeColor=#6c8ebf;" edge="1" parent="1" source="V3LLHuT2ZsmXBPZ5tFTZ-1" target="V3LLHuT2ZsmXBPZ5tFTZ-27">
          <mxGeometry relative="1" as="geometry" />
        </mxCell>
        <mxCell id="V3LLHuT2ZsmXBPZ5tFTZ-29" value="Quantity_3" style="ellipse;whiteSpace=wrap;html=1;fillColor=#dae8fc;strokeColor=#6c8ebf;" vertex="1" parent="1">
          <mxGeometry x="710" y="680" width="120" height="80" as="geometry" />
        </mxCell>
        <mxCell id="V3LLHuT2ZsmXBPZ5tFTZ-30" value="Amount_3" style="ellipse;whiteSpace=wrap;html=1;fillColor=#dae8fc;strokeColor=#6c8ebf;" vertex="1" parent="1">
          <mxGeometry x="610" y="610" width="120" height="80" as="geometry" />
        </mxCell>
        <mxCell id="V3LLHuT2ZsmXBPZ5tFTZ-31" value="Date" style="ellipse;whiteSpace=wrap;html=1;fillColor=#dae8fc;strokeColor=#6c8ebf;" vertex="1" parent="1">
          <mxGeometry x="970" y="780" width="120" height="80" as="geometry" />
        </mxCell>
        <mxCell id="V3LLHuT2ZsmXBPZ5tFTZ-38" value="Contact" style="ellipse;whiteSpace=wrap;html=1;fillColor=#dae8fc;strokeColor=#6c8ebf;" vertex="1" parent="1">
          <mxGeometry x="90" y="685" width="120" height="80" as="geometry" />
        </mxCell>
        <mxCell id="V3LLHuT2ZsmXBPZ5tFTZ-39" value="Fname" style="ellipse;whiteSpace=wrap;html=1;fillColor=#dae8fc;strokeColor=#6c8ebf;" vertex="1" parent="1">
          <mxGeometry x="370" y="645" width="120" height="80" as="geometry" />
        </mxCell>
        <mxCell id="V3LLHuT2ZsmXBPZ5tFTZ-40" value="&lt;u&gt;Customer_Id&lt;/u&gt;" style="ellipse;whiteSpace=wrap;html=1;fillColor=#dae8fc;strokeColor=#6c8ebf;" vertex="1" parent="1">
          <mxGeometry x="240" y="575" width="120" height="80" as="geometry" />
        </mxCell>
        <mxCell id="V3LLHuT2ZsmXBPZ5tFTZ-41" value="Email_Id" style="ellipse;whiteSpace=wrap;html=1;fillColor=#dae8fc;strokeColor=#6c8ebf;" vertex="1" parent="1">
          <mxGeometry x="160" y="775" width="120" height="80" as="geometry" />
        </mxCell>
        <mxCell id="V3LLHuT2ZsmXBPZ5tFTZ-42" value="Lname" style="ellipse;whiteSpace=wrap;html=1;fillColor=#dae8fc;strokeColor=#6c8ebf;" vertex="1" parent="1">
          <mxGeometry x="230" y="675" width="120" height="80" as="geometry" />
        </mxCell>
        <mxCell id="V3LLHuT2ZsmXBPZ5tFTZ-43" style="rounded=0;orthogonalLoop=1;jettySize=auto;html=1;exitX=0.75;exitY=0;exitDx=0;exitDy=0;entryX=0.376;entryY=0.987;entryDx=0;entryDy=0;entryPerimeter=0;fillColor=#dae8fc;strokeColor=#6c8ebf;" edge="1" parent="1" source="V3LLHuT2ZsmXBPZ5tFTZ-2" target="V3LLHuT2ZsmXBPZ5tFTZ-39">
          <mxGeometry relative="1" as="geometry" />
        </mxCell>
        <mxCell id="V3LLHuT2ZsmXBPZ5tFTZ-46" style="rounded=0;orthogonalLoop=1;jettySize=auto;html=1;exitX=0;exitY=0;exitDx=0;exitDy=0;entryX=0.94;entryY=0.81;entryDx=0;entryDy=0;entryPerimeter=0;fillColor=#dae8fc;strokeColor=#6c8ebf;" edge="1" parent="1" source="V3LLHuT2ZsmXBPZ5tFTZ-2" target="V3LLHuT2ZsmXBPZ5tFTZ-38">
          <mxGeometry relative="1" as="geometry" />
        </mxCell>
        <mxCell id="V3LLHuT2ZsmXBPZ5tFTZ-48" value="Payment_Method" style="ellipse;whiteSpace=wrap;html=1;fillColor=#dae8fc;strokeColor=#6c8ebf;" vertex="1" parent="1">
          <mxGeometry x="410" y="1290" width="120" height="80" as="geometry" />
        </mxCell>
        <mxCell id="V3LLHuT2ZsmXBPZ5tFTZ-49" value="&lt;i&gt;Order_No&lt;/i&gt;" style="ellipse;whiteSpace=wrap;html=1;fillColor=#dae8fc;strokeColor=#6c8ebf;" vertex="1" parent="1">
          <mxGeometry x="370" y="1190" width="120" height="80" as="geometry" />
        </mxCell>
        <mxCell id="V3LLHuT2ZsmXBPZ5tFTZ-54" value="Price" style="ellipse;whiteSpace=wrap;html=1;fillColor=#dae8fc;strokeColor=#6c8ebf;" vertex="1" parent="1">
          <mxGeometry x="1090" y="1180" width="120" height="80" as="geometry" />
        </mxCell>
        <mxCell id="V3LLHuT2ZsmXBPZ5tFTZ-55" value="&lt;u&gt;Name&lt;/u&gt;" style="ellipse;whiteSpace=wrap;html=1;fillColor=#dae8fc;strokeColor=#6c8ebf;" vertex="1" parent="1">
          <mxGeometry x="1110" y="1070" width="120" height="80" as="geometry" />
        </mxCell>
        <mxCell id="V3LLHuT2ZsmXBPZ5tFTZ-56" value="Type" style="ellipse;whiteSpace=wrap;html=1;fillColor=#dae8fc;strokeColor=#6c8ebf;" vertex="1" parent="1">
          <mxGeometry x="1160" y="1270" width="120" height="80" as="geometry" />
        </mxCell>
        <mxCell id="V3LLHuT2ZsmXBPZ5tFTZ-57" value="Category" style="ellipse;whiteSpace=wrap;html=1;fillColor=#dae8fc;strokeColor=#6c8ebf;" vertex="1" parent="1">
          <mxGeometry x="1310" y="1270" width="120" height="80" as="geometry" />
        </mxCell>
        <mxCell id="V3LLHuT2ZsmXBPZ5tFTZ-58" style="rounded=0;orthogonalLoop=1;jettySize=auto;html=1;exitX=0.75;exitY=1;exitDx=0;exitDy=0;entryX=0.294;entryY=-0.017;entryDx=0;entryDy=0;entryPerimeter=0;fillColor=#dae8fc;strokeColor=#6c8ebf;" edge="1" parent="1" source="V3LLHuT2ZsmXBPZ5tFTZ-4" target="V3LLHuT2ZsmXBPZ5tFTZ-57">
          <mxGeometry relative="1" as="geometry" />
        </mxCell>
        <mxCell id="V3LLHuT2ZsmXBPZ5tFTZ-59" style="rounded=0;orthogonalLoop=1;jettySize=auto;html=1;exitX=0;exitY=1;exitDx=0;exitDy=0;entryX=0.728;entryY=0.007;entryDx=0;entryDy=0;entryPerimeter=0;fillColor=#dae8fc;strokeColor=#6c8ebf;" edge="1" parent="1" source="V3LLHuT2ZsmXBPZ5tFTZ-4" target="V3LLHuT2ZsmXBPZ5tFTZ-56">
          <mxGeometry relative="1" as="geometry" />
        </mxCell>
        <mxCell id="V3LLHuT2ZsmXBPZ5tFTZ-60" style="rounded=0;orthogonalLoop=1;jettySize=auto;html=1;exitX=0;exitY=0.75;exitDx=0;exitDy=0;entryX=1.013;entryY=0.379;entryDx=0;entryDy=0;entryPerimeter=0;fillColor=#dae8fc;strokeColor=#6c8ebf;" edge="1" parent="1" source="V3LLHuT2ZsmXBPZ5tFTZ-4" target="V3LLHuT2ZsmXBPZ5tFTZ-54">
          <mxGeometry relative="1" as="geometry" />
        </mxCell>
        <mxCell id="V3LLHuT2ZsmXBPZ5tFTZ-61" style="rounded=0;orthogonalLoop=1;jettySize=auto;html=1;exitX=0;exitY=0.25;exitDx=0;exitDy=0;entryX=0.964;entryY=0.648;entryDx=0;entryDy=0;entryPerimeter=0;fillColor=#dae8fc;strokeColor=#6c8ebf;" edge="1" parent="1" source="V3LLHuT2ZsmXBPZ5tFTZ-4" target="V3LLHuT2ZsmXBPZ5tFTZ-55">
          <mxGeometry relative="1" as="geometry" />
        </mxCell>
        <mxCell id="V3LLHuT2ZsmXBPZ5tFTZ-62" value="Details" style="ellipse;whiteSpace=wrap;html=1;fillColor=#dae8fc;strokeColor=#6c8ebf;" vertex="1" parent="1">
          <mxGeometry x="250" y="1255" width="120" height="80" as="geometry" />
        </mxCell>
        <mxCell id="V3LLHuT2ZsmXBPZ5tFTZ-63" value="&lt;u&gt;Table_Number&lt;/u&gt;" style="ellipse;whiteSpace=wrap;html=1;fillColor=#dae8fc;strokeColor=#6c8ebf;" vertex="1" parent="1">
          <mxGeometry x="90" y="1235" width="120" height="80" as="geometry" />
        </mxCell>
        <mxCell id="V3LLHuT2ZsmXBPZ5tFTZ-64" value="&lt;i&gt;Customer_Id&lt;/i&gt;" style="ellipse;whiteSpace=wrap;html=1;fillColor=#dae8fc;strokeColor=#6c8ebf;" vertex="1" parent="1">
          <mxGeometry x="20" y="1125" width="120" height="80" as="geometry" />
        </mxCell>
        <mxCell id="V3LLHuT2ZsmXBPZ5tFTZ-66" style="rounded=0;orthogonalLoop=1;jettySize=auto;html=1;exitX=0;exitY=1;exitDx=0;exitDy=0;entryX=0.765;entryY=0.088;entryDx=0;entryDy=0;entryPerimeter=0;fillColor=#dae8fc;strokeColor=#6c8ebf;" edge="1" parent="1" source="V3LLHuT2ZsmXBPZ5tFTZ-8" target="V3LLHuT2ZsmXBPZ5tFTZ-63">
          <mxGeometry relative="1" as="geometry" />
        </mxCell>
        <mxCell id="V3LLHuT2ZsmXBPZ5tFTZ-68" value="Address" style="ellipse;whiteSpace=wrap;html=1;fillColor=#dae8fc;strokeColor=#6c8ebf;" vertex="1" parent="1">
          <mxGeometry x="805" y="1470" width="120" height="80" as="geometry" />
        </mxCell>
        <mxCell id="V3LLHuT2ZsmXBPZ5tFTZ-69" value="Salary" style="ellipse;whiteSpace=wrap;html=1;fillColor=#dae8fc;strokeColor=#6c8ebf;" vertex="1" parent="1">
          <mxGeometry x="690" y="1420" width="120" height="80" as="geometry" />
        </mxCell>
        <mxCell id="V3LLHuT2ZsmXBPZ5tFTZ-70" value="Fname" style="ellipse;whiteSpace=wrap;html=1;fillColor=#dae8fc;strokeColor=#6c8ebf;" vertex="1" parent="1">
          <mxGeometry x="820" y="1360" width="120" height="80" as="geometry" />
        </mxCell>
        <mxCell id="V3LLHuT2ZsmXBPZ5tFTZ-71" value="Contact" style="ellipse;whiteSpace=wrap;html=1;fillColor=#dae8fc;strokeColor=#6c8ebf;" vertex="1" parent="1">
          <mxGeometry x="995" y="1420" width="120" height="80" as="geometry" />
        </mxCell>
        <mxCell id="V3LLHuT2ZsmXBPZ5tFTZ-72" value="&lt;u&gt;Delivery_Boy_Id&lt;/u&gt;" style="ellipse;whiteSpace=wrap;html=1;fillColor=#dae8fc;strokeColor=#6c8ebf;" vertex="1" parent="1">
          <mxGeometry x="865" y="1240" width="120" height="80" as="geometry" />
        </mxCell>
        <mxCell id="V3LLHuT2ZsmXBPZ5tFTZ-73" value="Lname" style="ellipse;whiteSpace=wrap;html=1;fillColor=#dae8fc;strokeColor=#6c8ebf;" vertex="1" parent="1">
          <mxGeometry x="965" y="1320" width="120" height="80" as="geometry" />
        </mxCell>
        <mxCell id="V3LLHuT2ZsmXBPZ5tFTZ-74" style="rounded=0;orthogonalLoop=1;jettySize=auto;html=1;exitX=1;exitY=0.5;exitDx=0;exitDy=0;entryX=0.037;entryY=0.388;entryDx=0;entryDy=0;entryPerimeter=0;fillColor=#dae8fc;strokeColor=#6c8ebf;" edge="1" parent="1" source="V3LLHuT2ZsmXBPZ5tFTZ-9" target="V3LLHuT2ZsmXBPZ5tFTZ-73">
          <mxGeometry relative="1" as="geometry" />
        </mxCell>
        <mxCell id="V3LLHuT2ZsmXBPZ5tFTZ-77" style="rounded=0;orthogonalLoop=1;jettySize=auto;html=1;exitX=1;exitY=1;exitDx=0;exitDy=0;entryX=0.083;entryY=0.375;entryDx=0;entryDy=0;entryPerimeter=0;fillColor=#dae8fc;strokeColor=#6c8ebf;" edge="1" parent="1" source="V3LLHuT2ZsmXBPZ5tFTZ-9" target="V3LLHuT2ZsmXBPZ5tFTZ-70">
          <mxGeometry relative="1" as="geometry" />
        </mxCell>
        <mxCell id="V3LLHuT2ZsmXBPZ5tFTZ-80" value="Sex" style="ellipse;whiteSpace=wrap;html=1;fillColor=#dae8fc;strokeColor=#6c8ebf;" vertex="1" parent="1">
          <mxGeometry x="700" y="1530" width="120" height="80" as="geometry" />
        </mxCell>
        <mxCell id="V3LLHuT2ZsmXBPZ5tFTZ-81" value="Sex" style="ellipse;whiteSpace=wrap;html=1;fillColor=#dae8fc;strokeColor=#6c8ebf;" vertex="1" parent="1">
          <mxGeometry x="945" y="1500" width="120" height="80" as="geometry" />
        </mxCell>
        <mxCell id="V3LLHuT2ZsmXBPZ5tFTZ-84" value="Order_No" style="ellipse;whiteSpace=wrap;html=1;fontStyle=2;fillColor=#dae8fc;strokeColor=#6c8ebf;" vertex="1" parent="1">
          <mxGeometry x="580" y="1380" width="120" height="80" as="geometry" />
        </mxCell>
        <mxCell id="V3LLHuT2ZsmXBPZ5tFTZ-86" value="Sex" style="ellipse;whiteSpace=wrap;html=1;fillColor=#dae8fc;strokeColor=#6c8ebf;" vertex="1" parent="1">
          <mxGeometry x="540" y="430" width="120" height="80" as="geometry" />
        </mxCell>
        <mxCell id="V3LLHuT2ZsmXBPZ5tFTZ-87" value="Salary" style="ellipse;whiteSpace=wrap;html=1;fillColor=#dae8fc;strokeColor=#6c8ebf;" vertex="1" parent="1">
          <mxGeometry x="420" y="360" width="120" height="80" as="geometry" />
        </mxCell>
        <mxCell id="V3LLHuT2ZsmXBPZ5tFTZ-88" value="Address" style="ellipse;whiteSpace=wrap;html=1;fillColor=#dae8fc;strokeColor=#6c8ebf;" vertex="1" parent="1">
          <mxGeometry x="400" y="250" width="120" height="80" as="geometry" />
        </mxCell>
        <mxCell id="V3LLHuT2ZsmXBPZ5tFTZ-89" value="Lname" style="ellipse;whiteSpace=wrap;html=1;fillColor=#dae8fc;strokeColor=#6c8ebf;" vertex="1" parent="1">
          <mxGeometry x="510" y="180" width="120" height="80" as="geometry" />
        </mxCell>
        <mxCell id="V3LLHuT2ZsmXBPZ5tFTZ-90" value="Manager_Id" style="ellipse;whiteSpace=wrap;html=1;fontStyle=4;fillColor=#dae8fc;strokeColor=#6c8ebf;" vertex="1" parent="1">
          <mxGeometry x="590" y="100" width="120" height="80" as="geometry" />
        </mxCell>
        <mxCell id="V3LLHuT2ZsmXBPZ5tFTZ-91" value="Contact" style="ellipse;whiteSpace=wrap;html=1;fillColor=#dae8fc;strokeColor=#6c8ebf;" vertex="1" parent="1">
          <mxGeometry x="530" y="290" width="120" height="80" as="geometry" />
        </mxCell>
        <mxCell id="V3LLHuT2ZsmXBPZ5tFTZ-92" value="Fname" style="ellipse;whiteSpace=wrap;html=1;fillColor=#dae8fc;strokeColor=#6c8ebf;" vertex="1" parent="1">
          <mxGeometry x="650" y="220" width="120" height="80" as="geometry" />
        </mxCell>
        <mxCell id="V3LLHuT2ZsmXBPZ5tFTZ-93" value="BDate" style="ellipse;whiteSpace=wrap;html=1;fillColor=#dae8fc;strokeColor=#6c8ebf;" vertex="1" parent="1">
          <mxGeometry x="590" y="520" width="120" height="80" as="geometry" />
        </mxCell>
        <mxCell id="V3LLHuT2ZsmXBPZ5tFTZ-94" value="Join_Date" style="ellipse;whiteSpace=wrap;html=1;fillColor=#dae8fc;strokeColor=#6c8ebf;" vertex="1" parent="1">
          <mxGeometry x="410" y="490" width="120" height="80" as="geometry" />
        </mxCell>
        <mxCell id="V3LLHuT2ZsmXBPZ5tFTZ-96" style="rounded=0;orthogonalLoop=1;jettySize=auto;html=1;exitX=0.75;exitY=0;exitDx=0;exitDy=0;entryX=0.667;entryY=1;entryDx=0;entryDy=0;entryPerimeter=0;fillColor=#dae8fc;strokeColor=#6c8ebf;" edge="1" parent="1" source="V3LLHuT2ZsmXBPZ5tFTZ-6" target="V3LLHuT2ZsmXBPZ5tFTZ-92">
          <mxGeometry relative="1" as="geometry" />
        </mxCell>
        <mxCell id="V3LLHuT2ZsmXBPZ5tFTZ-102" style="rounded=0;orthogonalLoop=1;jettySize=auto;html=1;exitX=0;exitY=1;exitDx=0;exitDy=0;entryX=0.964;entryY=0.24;entryDx=0;entryDy=0;entryPerimeter=0;fillColor=#dae8fc;strokeColor=#6c8ebf;" edge="1" parent="1" source="V3LLHuT2ZsmXBPZ5tFTZ-6" target="V3LLHuT2ZsmXBPZ5tFTZ-86">
          <mxGeometry relative="1" as="geometry" />
        </mxCell>
        <mxCell id="V3LLHuT2ZsmXBPZ5tFTZ-103" style="rounded=0;orthogonalLoop=1;jettySize=auto;html=1;exitX=0.25;exitY=1;exitDx=0;exitDy=0;entryX=0.658;entryY=0.048;entryDx=0;entryDy=0;entryPerimeter=0;fillColor=#dae8fc;strokeColor=#6c8ebf;" edge="1" parent="1" source="V3LLHuT2ZsmXBPZ5tFTZ-6" target="V3LLHuT2ZsmXBPZ5tFTZ-93">
          <mxGeometry relative="1" as="geometry" />
        </mxCell>
        <mxCell id="V3LLHuT2ZsmXBPZ5tFTZ-104" value="Contact_Number" style="ellipse;whiteSpace=wrap;html=1;fillColor=#dae8fc;strokeColor=#6c8ebf;" vertex="1" parent="1">
          <mxGeometry x="1130" y="450" width="120" height="80" as="geometry" />
        </mxCell>
        <mxCell id="V3LLHuT2ZsmXBPZ5tFTZ-105" value="Name" style="ellipse;whiteSpace=wrap;html=1;fillColor=#dae8fc;strokeColor=#6c8ebf;" vertex="1" parent="1">
          <mxGeometry x="1220" y="230" width="120" height="80" as="geometry" />
        </mxCell>
        <mxCell id="V3LLHuT2ZsmXBPZ5tFTZ-106" value="Salary" style="ellipse;whiteSpace=wrap;html=1;fillColor=#dae8fc;strokeColor=#6c8ebf;" vertex="1" parent="1">
          <mxGeometry x="1150" y="340" width="120" height="80" as="geometry" />
        </mxCell>
        <mxCell id="V3LLHuT2ZsmXBPZ5tFTZ-107" value="&lt;u&gt;Employee_Id&lt;/u&gt;" style="ellipse;whiteSpace=wrap;html=1;fillColor=#dae8fc;strokeColor=#6c8ebf;" vertex="1" parent="1">
          <mxGeometry x="1070" y="240" width="120" height="80" as="geometry" />
        </mxCell>
        <mxCell id="V3LLHuT2ZsmXBPZ5tFTZ-108" value="Date_of_joining" style="ellipse;whiteSpace=wrap;html=1;fillColor=#dae8fc;strokeColor=#6c8ebf;" vertex="1" parent="1">
          <mxGeometry x="1270" y="410" width="120" height="80" as="geometry" />
        </mxCell>
        <mxCell id="V3LLHuT2ZsmXBPZ5tFTZ-109" value="Post" style="ellipse;whiteSpace=wrap;html=1;fillColor=#dae8fc;strokeColor=#6c8ebf;" vertex="1" parent="1">
          <mxGeometry x="1310" y="310" width="120" height="80" as="geometry" />
        </mxCell>
        <mxCell id="V3LLHuT2ZsmXBPZ5tFTZ-110" style="rounded=0;orthogonalLoop=1;jettySize=auto;html=1;exitX=1;exitY=0.5;exitDx=0;exitDy=0;entryX=0.067;entryY=0.71;entryDx=0;entryDy=0;entryPerimeter=0;fillColor=#dae8fc;strokeColor=#6c8ebf;" edge="1" parent="1" source="V3LLHuT2ZsmXBPZ5tFTZ-5" target="V3LLHuT2ZsmXBPZ5tFTZ-106">
          <mxGeometry relative="1" as="geometry" />
        </mxCell>
        <mxCell id="V3LLHuT2ZsmXBPZ5tFTZ-113" style="rounded=0;orthogonalLoop=1;jettySize=auto;html=1;exitX=0.75;exitY=0;exitDx=0;exitDy=0;entryX=0.32;entryY=1.01;entryDx=0;entryDy=0;entryPerimeter=0;fillColor=#dae8fc;strokeColor=#6c8ebf;" edge="1" parent="1" source="V3LLHuT2ZsmXBPZ5tFTZ-5" target="V3LLHuT2ZsmXBPZ5tFTZ-107">
          <mxGeometry relative="1" as="geometry" />
        </mxCell>
        <mxCell id="V3LLHuT2ZsmXBPZ5tFTZ-114" style="rounded=0;orthogonalLoop=1;jettySize=auto;html=1;exitX=1;exitY=0.75;exitDx=0;exitDy=0;entryX=0;entryY=0.295;entryDx=0;entryDy=0;entryPerimeter=0;fillColor=#dae8fc;strokeColor=#6c8ebf;" edge="1" parent="1" source="V3LLHuT2ZsmXBPZ5tFTZ-5" target="V3LLHuT2ZsmXBPZ5tFTZ-108">
          <mxGeometry relative="1" as="geometry" />
        </mxCell>
        <mxCell id="V3LLHuT2ZsmXBPZ5tFTZ-117" value="Quantity_in_kg" style="ellipse;whiteSpace=wrap;html=1;fillColor=#dae8fc;strokeColor=#6c8ebf;" vertex="1" parent="1">
          <mxGeometry x="1390" y="610" width="120" height="80" as="geometry" />
        </mxCell>
        <mxCell id="V3LLHuT2ZsmXBPZ5tFTZ-118" value="&lt;i&gt;Name&lt;/i&gt;" style="ellipse;whiteSpace=wrap;html=1;fillColor=#dae8fc;strokeColor=#6c8ebf;" vertex="1" parent="1">
          <mxGeometry x="1270" y="690" width="120" height="80" as="geometry" />
        </mxCell>
        <mxCell id="V3LLHuT2ZsmXBPZ5tFTZ-119" value="Supp_name" style="ellipse;whiteSpace=wrap;html=1;fillColor=#dae8fc;strokeColor=#6c8ebf;" vertex="1" parent="1">
          <mxGeometry x="1400" y="740" width="120" height="80" as="geometry" />
        </mxCell>
        <mxCell id="V3LLHuT2ZsmXBPZ5tFTZ-120" value="&lt;u&gt;Stock_Id&lt;/u&gt;" style="ellipse;whiteSpace=wrap;html=1;fillColor=#dae8fc;strokeColor=#6c8ebf;" vertex="1" parent="1">
          <mxGeometry x="1260" y="570" width="120" height="80" as="geometry" />
        </mxCell>
        <mxCell id="V3LLHuT2ZsmXBPZ5tFTZ-121" style="rounded=0;orthogonalLoop=1;jettySize=auto;html=1;exitX=1;exitY=0;exitDx=0;exitDy=0;entryX=0.067;entryY=0.872;entryDx=0;entryDy=0;entryPerimeter=0;fillColor=#dae8fc;strokeColor=#6c8ebf;" edge="1" parent="1" source="V3LLHuT2ZsmXBPZ5tFTZ-7" target="V3LLHuT2ZsmXBPZ5tFTZ-119">
          <mxGeometry relative="1" as="geometry" />
        </mxCell>
        <mxCell id="V3LLHuT2ZsmXBPZ5tFTZ-122" style="rounded=0;orthogonalLoop=1;jettySize=auto;html=1;exitX=0.75;exitY=0;exitDx=0;exitDy=0;entryX=0.25;entryY=0.997;entryDx=0;entryDy=0;entryPerimeter=0;fillColor=#dae8fc;strokeColor=#6c8ebf;" edge="1" parent="1" source="V3LLHuT2ZsmXBPZ5tFTZ-7" target="V3LLHuT2ZsmXBPZ5tFTZ-117">
          <mxGeometry relative="1" as="geometry" />
        </mxCell>
        <mxCell id="V3LLHuT2ZsmXBPZ5tFTZ-123" style="rounded=0;orthogonalLoop=1;jettySize=auto;html=1;exitX=0.5;exitY=0;exitDx=0;exitDy=0;entryX=0.575;entryY=1.034;entryDx=0;entryDy=0;entryPerimeter=0;fillColor=#dae8fc;strokeColor=#6c8ebf;" edge="1" parent="1" source="V3LLHuT2ZsmXBPZ5tFTZ-7" target="V3LLHuT2ZsmXBPZ5tFTZ-118">
          <mxGeometry relative="1" as="geometry" />
        </mxCell>
        <mxCell id="V3LLHuT2ZsmXBPZ5tFTZ-125" value="Description" style="ellipse;whiteSpace=wrap;html=1;fillColor=#dae8fc;strokeColor=#6c8ebf;" vertex="1" parent="1">
          <mxGeometry x="1510" y="680" width="120" height="80" as="geometry" />
        </mxCell>
        <mxCell id="V3LLHuT2ZsmXBPZ5tFTZ-127" value="places" style="rhombus;whiteSpace=wrap;html=1;fillColor=#d5e8d4;strokeColor=#82b366;" vertex="1" parent="1">
          <mxGeometry x="500" y="930" width="80" height="80" as="geometry" />
        </mxCell>
        <mxCell id="V3LLHuT2ZsmXBPZ5tFTZ-130" value="" style="edgeStyle=entityRelationEdgeStyle;fontSize=12;html=1;endArrow=ERoneToMany;rounded=0;entryX=0;entryY=0.5;entryDx=0;entryDy=0;exitX=1;exitY=0.5;exitDx=0;exitDy=0;" edge="1" parent="1" source="V3LLHuT2ZsmXBPZ5tFTZ-127" target="V3LLHuT2ZsmXBPZ5tFTZ-1">
          <mxGeometry width="100" height="100" relative="1" as="geometry">
            <mxPoint x="570" y="1080" as="sourcePoint" />
            <mxPoint x="670" y="980" as="targetPoint" />
          </mxGeometry>
        </mxCell>
        <mxCell id="V3LLHuT2ZsmXBPZ5tFTZ-133" value="" style="rounded=0;orthogonalLoop=1;jettySize=auto;html=1;exitX=0.5;exitY=1;exitDx=0;exitDy=0;entryX=0.5;entryY=0;entryDx=0;entryDy=0;strokeColor=none;endArrow=none;endFill=0;" edge="1" parent="1" source="V3LLHuT2ZsmXBPZ5tFTZ-2">
          <mxGeometry relative="1" as="geometry">
            <mxPoint x="390" y="865" as="sourcePoint" />
            <mxPoint x="370" y="905" as="targetPoint" />
          </mxGeometry>
        </mxCell>
        <mxCell id="V3LLHuT2ZsmXBPZ5tFTZ-134" value="" style="endArrow=none;html=1;rounded=0;entryX=0.5;entryY=1;entryDx=0;entryDy=0;exitX=0;exitY=0.5;exitDx=0;exitDy=0;edgeStyle=orthogonalEdgeStyle;" edge="1" parent="1" source="V3LLHuT2ZsmXBPZ5tFTZ-127" target="V3LLHuT2ZsmXBPZ5tFTZ-2">
          <mxGeometry width="50" height="50" relative="1" as="geometry">
            <mxPoint x="410" y="1000" as="sourcePoint" />
            <mxPoint x="460" y="950" as="targetPoint" />
          </mxGeometry>
        </mxCell>
        <mxCell id="V3LLHuT2ZsmXBPZ5tFTZ-135" value="delivers" style="rhombus;whiteSpace=wrap;html=1;fillColor=#d5e8d4;strokeColor=#82b366;" vertex="1" parent="1">
          <mxGeometry x="710" y="1090" width="80" height="80" as="geometry" />
        </mxCell>
        <mxCell id="V3LLHuT2ZsmXBPZ5tFTZ-139" value="" style="endArrow=none;html=1;rounded=0;entryX=0.5;entryY=1;entryDx=0;entryDy=0;exitX=0.5;exitY=0;exitDx=0;exitDy=0;" edge="1" parent="1" source="V3LLHuT2ZsmXBPZ5tFTZ-140" target="V3LLHuT2ZsmXBPZ5tFTZ-2">
          <mxGeometry width="50" height="50" relative="1" as="geometry">
            <mxPoint x="390" y="1020" as="sourcePoint" />
            <mxPoint x="330" y="960" as="targetPoint" />
          </mxGeometry>
        </mxCell>
        <mxCell id="V3LLHuT2ZsmXBPZ5tFTZ-140" value="occupies" style="rhombus;whiteSpace=wrap;html=1;fillColor=#d5e8d4;strokeColor=#82b366;" vertex="1" parent="1">
          <mxGeometry x="350" y="1010" width="80" height="80" as="geometry" />
        </mxCell>
        <mxCell id="V3LLHuT2ZsmXBPZ5tFTZ-141" value="" style="endArrow=none;html=1;rounded=0;entryX=0.5;entryY=1;entryDx=0;entryDy=0;exitX=0.5;exitY=0;exitDx=0;exitDy=0;edgeStyle=orthogonalEdgeStyle;" edge="1" parent="1" source="V3LLHuT2ZsmXBPZ5tFTZ-8" target="V3LLHuT2ZsmXBPZ5tFTZ-140">
          <mxGeometry width="50" height="50" relative="1" as="geometry">
            <mxPoint x="280" y="1010" as="sourcePoint" />
            <mxPoint x="330" y="960" as="targetPoint" />
          </mxGeometry>
        </mxCell>
        <mxCell id="V3LLHuT2ZsmXBPZ5tFTZ-142" value="" style="endArrow=none;html=1;rounded=0;entryX=0.5;entryY=1;entryDx=0;entryDy=0;exitX=0.5;exitY=0;exitDx=0;exitDy=0;" edge="1" parent="1" source="V3LLHuT2ZsmXBPZ5tFTZ-9" target="V3LLHuT2ZsmXBPZ5tFTZ-135">
          <mxGeometry width="50" height="50" relative="1" as="geometry">
            <mxPoint x="540" y="1480" as="sourcePoint" />
            <mxPoint x="590" y="1430" as="targetPoint" />
          </mxGeometry>
        </mxCell>
        <mxCell id="V3LLHuT2ZsmXBPZ5tFTZ-144" value="" style="fontSize=12;html=1;endArrow=ERoneToMany;rounded=0;entryX=0.5;entryY=1;entryDx=0;entryDy=0;exitX=0.5;exitY=0;exitDx=0;exitDy=0;" edge="1" parent="1" source="V3LLHuT2ZsmXBPZ5tFTZ-135" target="V3LLHuT2ZsmXBPZ5tFTZ-1">
          <mxGeometry width="100" height="100" relative="1" as="geometry">
            <mxPoint x="610" y="1150" as="sourcePoint" />
            <mxPoint x="710" y="1050" as="targetPoint" />
          </mxGeometry>
        </mxCell>
        <mxCell id="V3LLHuT2ZsmXBPZ5tFTZ-146" value="has" style="rhombus;whiteSpace=wrap;html=1;fillColor=#d5e8d4;strokeColor=#82b366;" vertex="1" parent="1">
          <mxGeometry x="1190" y="930" width="80" height="80" as="geometry" />
        </mxCell>
        <mxCell id="V3LLHuT2ZsmXBPZ5tFTZ-151" value="" style="edgeStyle=entityRelationEdgeStyle;fontSize=12;html=1;endArrow=ERzeroToMany;endFill=1;startArrow=ERzeroToMany;rounded=0;exitX=1;exitY=0.5;exitDx=0;exitDy=0;entryX=0;entryY=0.5;entryDx=0;entryDy=0;" edge="1" parent="1" source="V3LLHuT2ZsmXBPZ5tFTZ-6" target="V3LLHuT2ZsmXBPZ5tFTZ-5">
          <mxGeometry width="100" height="100" relative="1" as="geometry">
            <mxPoint x="760" y="480" as="sourcePoint" />
            <mxPoint x="860" y="380" as="targetPoint" />
          </mxGeometry>
        </mxCell>
        <mxCell id="V3LLHuT2ZsmXBPZ5tFTZ-150" value="manages" style="rhombus;whiteSpace=wrap;html=1;fillColor=#d5e8d4;strokeColor=#82b366;" vertex="1" parent="1">
          <mxGeometry x="840" y="360" width="80" height="80" as="geometry" />
        </mxCell>
        <mxCell id="V3LLHuT2ZsmXBPZ5tFTZ-153" value="" style="edgeStyle=orthogonalEdgeStyle;fontSize=12;html=1;endArrow=ERmany;rounded=0;entryX=0;entryY=0.5;entryDx=0;entryDy=0;exitX=0.5;exitY=0;exitDx=0;exitDy=0;" edge="1" parent="1" source="V3LLHuT2ZsmXBPZ5tFTZ-146" target="V3LLHuT2ZsmXBPZ5tFTZ-7">
          <mxGeometry width="100" height="100" relative="1" as="geometry">
            <mxPoint x="1090" y="1000" as="sourcePoint" />
            <mxPoint x="1190" y="900" as="targetPoint" />
          </mxGeometry>
        </mxCell>
        <mxCell id="V3LLHuT2ZsmXBPZ5tFTZ-154" value="requires" style="rhombus;whiteSpace=wrap;html=1;fillColor=#d5e8d4;strokeColor=#82b366;" vertex="1" parent="1">
          <mxGeometry x="1300" y="970" width="80" height="80" as="geometry" />
        </mxCell>
        <mxCell id="V3LLHuT2ZsmXBPZ5tFTZ-155" value="" style="edgeStyle=orthogonalEdgeStyle;fontSize=12;html=1;endArrow=ERmany;rounded=0;entryX=0.5;entryY=1;entryDx=0;entryDy=0;exitX=0.5;exitY=0;exitDx=0;exitDy=0;" edge="1" parent="1" source="V3LLHuT2ZsmXBPZ5tFTZ-154" target="V3LLHuT2ZsmXBPZ5tFTZ-7">
          <mxGeometry width="100" height="100" relative="1" as="geometry">
            <mxPoint x="1240" y="940" as="sourcePoint" />
            <mxPoint x="1310" y="870" as="targetPoint" />
          </mxGeometry>
        </mxCell>
        <mxCell id="V3LLHuT2ZsmXBPZ5tFTZ-156" value="" style="endArrow=none;html=1;rounded=0;entryX=0.5;entryY=0;entryDx=0;entryDy=0;exitX=0.5;exitY=1;exitDx=0;exitDy=0;edgeStyle=orthogonalEdgeStyle;" edge="1" parent="1" source="V3LLHuT2ZsmXBPZ5tFTZ-154" target="V3LLHuT2ZsmXBPZ5tFTZ-4">
          <mxGeometry width="50" height="50" relative="1" as="geometry">
            <mxPoint x="1200" y="980" as="sourcePoint" />
            <mxPoint x="800" y="980" as="targetPoint" />
          </mxGeometry>
        </mxCell>
        <mxCell id="V3LLHuT2ZsmXBPZ5tFTZ-157" value="places" style="rhombus;whiteSpace=wrap;html=1;fillColor=#d5e8d4;strokeColor=#82b366;" vertex="1" parent="1">
          <mxGeometry x="540" y="1045" width="80" height="80" as="geometry" />
        </mxCell>
        <mxCell id="V3LLHuT2ZsmXBPZ5tFTZ-158" value="" style="endArrow=none;html=1;rounded=0;entryX=0;entryY=1;entryDx=0;entryDy=0;exitX=0.5;exitY=0;exitDx=0;exitDy=0;edgeStyle=orthogonalEdgeStyle;" edge="1" parent="1" source="V3LLHuT2ZsmXBPZ5tFTZ-157" target="V3LLHuT2ZsmXBPZ5tFTZ-1">
          <mxGeometry width="50" height="50" relative="1" as="geometry">
            <mxPoint x="510" y="980" as="sourcePoint" />
            <mxPoint x="400" y="875" as="targetPoint" />
          </mxGeometry>
        </mxCell>
        <mxCell id="V3LLHuT2ZsmXBPZ5tFTZ-159" value="" style="endArrow=none;html=1;rounded=0;entryX=0.5;entryY=1;entryDx=0;entryDy=0;exitX=0.5;exitY=0;exitDx=0;exitDy=0;edgeStyle=orthogonalEdgeStyle;" edge="1" parent="1" source="V3LLHuT2ZsmXBPZ5tFTZ-3" target="V3LLHuT2ZsmXBPZ5tFTZ-157">
          <mxGeometry width="50" height="50" relative="1" as="geometry">
            <mxPoint x="620" y="1050" as="sourcePoint" />
            <mxPoint x="720" y="1020" as="targetPoint" />
          </mxGeometry>
        </mxCell>
      </root>
    </mxGraphModel>
  </diagram>
</mxfile>
